<?xml version="1.0" encoding="UTF-8" standalone="no"?>
<svg
   xmlns:dc="http://purl.org/dc/elements/1.1/"
   xmlns:cc="http://creativecommons.org/ns#"
   xmlns:rdf="http://www.w3.org/1999/02/22-rdf-syntax-ns#"
   xmlns:svg="http://www.w3.org/2000/svg"
   xmlns="http://www.w3.org/2000/svg"
   xmlns:sodipodi="http://sodipodi.sourceforge.net/DTD/sodipodi-0.dtd"
   xmlns:inkscape="http://www.inkscape.org/namespaces/inkscape"
   viewBox="0 0 130 130"
   version="1.1"
   id="svg6"
   sodipodi:docname="view-calendar-birthday-color.svg"
   inkscape:export-filename="/home/doitux/Projekte/qt-c++/qupil-git/src/gui/resources/view-calendar-birthday-color.png"
   inkscape:export-xdpi="96"
   inkscape:export-ydpi="96"
   inkscape:version="0.92.4 (5da689c313, 2019-01-14)"
   width="130"
   height="130">
  <metadata
     id="metadata10">
    <rdf:RDF>
      <cc:Work
         rdf:about="">
        <dc:format>image/svg+xml</dc:format>
        <dc:type
           rdf:resource="http://purl.org/dc/dcmitype/StillImage" />
        <dc:title></dc:title>
      </cc:Work>
    </rdf:RDF>
  </metadata>
  <sodipodi:namedview
     pagecolor="#ffffff"
     bordercolor="#666666"
     borderopacity="1"
     objecttolerance="10"
     gridtolerance="10"
     guidetolerance="10"
     inkscape:pageopacity="0"
     inkscape:pageshadow="2"
     inkscape:window-width="1586"
     inkscape:window-height="742"
     id="namedview8"
     showgrid="false"
     inkscape:zoom="2"
     inkscape:cx="1.009554"
     inkscape:cy="15.038215"
     inkscape:window-x="0"
     inkscape:window-y="0"
     inkscape:window-maximized="0"
     inkscape:current-layer="svg6" />
  <defs
     id="defs3051">
    <style
       type="text/css"
       id="current-color-scheme">
      .ColorScheme-Text {
        color:#232629;
      }
      </style>
  </defs>
  <path
     style="color:#232629;fill:#ffa92e;fill-opacity:1;stroke:none;stroke-width:6.40625"
     d="m 19.029419,14 c 2.904401,0.591297 5.079956,3.146942 5.079956,6.231103 0,1.850125 -0.799836,3.494417 -2.052002,4.654525 -0.70078,-0.830186 -1.126099,-1.888883 -1.126099,-3.065518 0,-0.258813 0.01102,-0.500969 0.07508,-0.750685 -1.939236,1.088102 -3.253174,3.127595 -3.253174,5.517831 0,3.525296 2.830906,6.36871 6.356201,6.36871 3.52395,0 6.368713,-2.843414 6.368713,-6.36871 C 30.478087,19.979145 25.46123,14.649274 19.029419,14 Z m 25.625,0 c 2.904402,0.591297 5.079956,3.146942 5.079956,6.231103 0,1.850125 -0.79983,3.494417 -2.052002,4.654525 -0.70078,-0.830186 -1.126099,-1.888883 -1.126099,-3.065518 0,-0.258813 0.01102,-0.500969 0.07507,-0.750685 -1.939236,1.088102 -3.253174,3.127595 -3.253174,5.517831 0,3.525296 2.8309,6.36871 6.356201,6.36871 3.523949,0 6.368715,-2.843414 6.368715,-6.36871 0,-6.608111 -5.016861,-11.937982 -11.448672,-12.587256 z m 32.031248,0 c 2.904402,0.591297 5.079958,3.146942 5.079958,6.231103 0,1.850125 -0.799846,3.494417 -2.051999,4.654525 -0.700792,-0.830186 -1.126103,-1.888883 -1.126103,-3.065518 0,-0.258813 0.01089,-0.500969 0.07508,-0.750685 -1.939236,1.088102 -3.253158,3.127595 -3.253177,5.517831 0,3.525296 2.830909,6.36871 6.356204,6.36871 3.52395,0 6.368716,-2.843414 6.368716,-6.36871 0,-6.608111 -5.016862,-11.937982 -11.448673,-12.587256 z m 25.625003,0 c 2.9044,0.591297 5.07995,3.146942 5.07995,6.231103 0,1.850125 -0.79984,3.494417 -2.05199,4.654525 -0.70079,-0.830186 -1.12611,-1.888883 -1.12611,-3.065518 0,-0.258813 0.0109,-0.500969 0.0751,-0.750685 -1.93923,1.088102 -3.25317,3.127595 -3.25317,5.517831 0,3.525296 2.8309,6.36871 6.3562,6.36871 3.52395,0 6.36872,-2.843414 6.36872,-6.36871 0,-6.608111 -5.01687,-11.937982 -11.44868,-12.587256 z M 20.90625,39.625 V 52.4375 H 14.5 v 6.40625 25.625 V 90.875 110.09375 116.5 H 117 V 110.09375 90.875 84.46875 58.84375 52.4375 h -6.40625 V 39.625 H 104.1875 V 52.4375 H 84.96875 V 39.625 H 78.5625 V 52.4375 H 52.9375 V 39.625 H 46.53125 V 52.4375 H 27.3125 V 39.625 Z m 0,19.21875 h 89.6875 v 25.625 h -3.49091 C 98.391432,84.46875 91.375,77.452305 91.375,68.740894 V 65.25 h -6.40625 v 3.490894 c 0,8.711411 -7.016433,15.727856 -15.727844,15.727856 h -6.981813 c -8.711411,0 -15.727843,-7.016445 -15.727843,-15.727856 V 65.25 H 40.125 v 3.490894 c 0,8.711411 -7.016427,15.727856 -15.727844,15.727856 H 20.90625 Z M 43.328125,82.279094 C 46.763278,87.462711 52.633049,90.875 59.34375,90.875 h 12.8125 c 6.710675,0 12.580466,-3.412289 16.015625,-8.595906 3.435159,5.183617 9.30495,8.595906 16.015625,8.595906 h 6.40625 v 6.40625 H 20.90625 V 90.875 h 6.40625 c 6.710681,0 12.580472,-3.412289 16.015625,-8.595906 z M 20.90625,103.6875 h 89.6875 v 6.40625 h -89.6875 z"
     class="ColorScheme-Text"
     id="path4"
     inkscape:export-filename="/home/doitux/Projekte/qt-c++/qupil-git/src/gui/resources/path4.png"
     inkscape:export-xdpi="96"
     inkscape:export-ydpi="96"
     inkscape:connector-curvature="0" />
  <rect
     style="fill:#cf724b;fill-opacity:0.79115481;fill-rule:nonzero;stroke:#00b90f;stroke-width:6.38019705;stroke-miterlimit:4;stroke-dasharray:none;stroke-opacity:1"
     id="rect823"
     width="0.14519276"
     height="7.0155578"
     x="24.098671"
     y="42.242252"
     inkscape:export-filename="/home/doitux/Projekte/qt-c++/qupil-git/src/gui/resources/path4.png"
     inkscape:export-xdpi="96"
     inkscape:export-ydpi="96" />
  <rect
     style="fill:#cf724b;fill-opacity:0.79115481;fill-rule:nonzero;stroke:#002fb9;stroke-width:6.38019705;stroke-miterlimit:4;stroke-dasharray:none;stroke-opacity:1"
     id="rect823-8"
     width="0.14519276"
     height="7.0155578"
     x="49.640038"
     y="42.226856"
     inkscape:export-filename="/home/doitux/Projekte/qt-c++/qupil-git/src/gui/resources/path4.png"
     inkscape:export-xdpi="96"
     inkscape:export-ydpi="96" />
  <rect
     style="fill:#cf724b;fill-opacity:0.79115481;fill-rule:nonzero;stroke:#fb1200;stroke-width:6.38019705;stroke-miterlimit:4;stroke-dasharray:none;stroke-opacity:1"
     id="rect823-1"
     width="0.14519276"
     height="7.0155578"
     x="81.696182"
     y="42.20789"
     inkscape:export-filename="/home/doitux/Projekte/qt-c++/qupil-git/src/gui/resources/path4.png"
     inkscape:export-xdpi="96"
     inkscape:export-ydpi="96" />
  <rect
     style="fill:#cf724b;fill-opacity:0.79115481;fill-rule:nonzero;stroke:#ffff0e;stroke-width:6.38019705;stroke-miterlimit:4;stroke-dasharray:none;stroke-opacity:1"
     id="rect823-1-2"
     width="0.14519276"
     height="7.0155578"
     x="107.32307"
     y="42.215221"
     inkscape:export-filename="/home/doitux/Projekte/qt-c++/qupil-git/src/gui/resources/path4.png"
     inkscape:export-xdpi="96"
     inkscape:export-ydpi="96" />
</svg>
